<?xml version="1.0" encoding="UTF-8" standalone="no"?>
<!DOCTYPE svg PUBLIC "-//W3C//DTD SVG 1.1//EN"
 "http://www.w3.org/Graphics/SVG/1.1/DTD/svg11.dtd">
<!-- Generated by graphviz version 2.36.0 (20140111.2315)
 -->
<!-- Title: g Pages: 1 -->
<svg width="252pt" height="80pt"
 viewBox="0.00 0.00 252.00 80.18" xmlns="http://www.w3.org/2000/svg" xmlns:xlink="http://www.w3.org/1999/xlink">
<g id="graph0" class="graph" transform="scale(1 1) rotate(0) translate(4 76.1804)">
<title>g</title>
<polygon fill="white" stroke="none" points="-4,4 -4,-76.1804 248,-76.1804 248,4 -4,4"/>
<!-- Idle -->
<g id="node1" class="node"><title>Idle</title>
<ellipse fill="none" stroke="black" cx="33" cy="-21.1804" rx="28.6832" ry="18"/>
<ellipse fill="none" stroke="black" cx="33" cy="-21.1804" rx="32.6952" ry="22"/>
<text text-anchor="middle" x="33" y="-17.4804" font-family="Times,serif" font-size="14.00">Idle</text>
</g>
<!-- Tracking -->
<g id="node2" class="node"><title>Tracking</title>
<ellipse fill="none" stroke="black" cx="192" cy="-21.1804" rx="51.9908" ry="18"/>
<text text-anchor="middle" x="192" y="-17.4804" font-family="Times,serif" font-size="14.00">Tracking</text>
</g>
<!-- Idle&#45;&gt;Tracking -->
<g id="edge1" class="edge"><title>Idle&#45;&gt;Tracking</title>
<path fill="none" stroke="black" d="M65.7713,-21.1804C84.1035,-21.1804 107.781,-21.1804 129.605,-21.1804"/>
<polygon fill="black" stroke="black" points="129.806,-24.6805 139.806,-21.1804 129.806,-17.6805 129.806,-24.6805"/>
<text text-anchor="middle" x="103" y="-24.9804" font-family="Times,serif" font-size="14.00">Start</text>
</g>
<!-- Tracking&#45;&gt;Idle -->
<!-- Tracking&#45;&gt;Tracking -->
<g id="edge2" class="edge"><title>Tracking&#45;&gt;Tracking</title>
<path fill="none" stroke="red" d="M176.29,-38.5903C173.357,-48.2683 178.594,-57.1804 192,-57.1804 200.379,-57.1804 205.567,-53.6992 207.563,-48.7254"/>
<polygon fill="red" stroke="red" points="211.065,-48.6402 207.71,-38.5903 204.065,-48.5384 211.065,-48.6402"/>
<text text-anchor="middle" x="192" y="-60.9804" font-family="Times,serif" font-size="14.00">Reset</text>
</g>
</g>
</svg>
